<svg width="30" height="30" fill="none" xmlns="http://www.w3.org/2000/svg"><g clip-path="url(#clip0_12_222)"><path d="M19.605 0h-9.21C1.99 0 0 1.99 0 10.395v9.21C0 28.01 1.99 30 10.395 30h9.21C28.01 30 30 28.01 30 19.605v-9.21C30 1.99 27.989 0 19.605 0zm4.615 21.404h-2.18c-.825 0-1.08-.657-2.563-2.159-1.29-1.25-1.862-1.419-2.18-1.419-.445 0-.572.128-.572.741v1.97c0 .53-.169.847-1.566.847-2.308 0-4.87-1.398-6.669-4.003-2.71-3.81-3.453-6.668-3.453-7.261 0-.317.128-.614.742-.614h2.18c.55 0 .762.254.975.846 1.079 3.113 2.879 5.844 3.62 5.844.275 0 .402-.127.402-.825v-3.22c-.085-1.482-.868-1.608-.868-2.137 0-.255.212-.509.55-.509h3.43c.466 0 .634.254.634.804v4.341c0 .465.213.635.34.635.274 0 .508-.17 1.015-.678 1.568-1.757 2.69-4.467 2.69-4.467.148-.318.402-.614.953-.614h2.18c.656 0 .805.338.656.804-.275 1.271-2.942 5.039-2.942 5.039-.233.381-.318.55 0 .975.232.317.995.973 1.503 1.566.932 1.059 1.65 1.948 1.842 2.563.212.612-.107.93-.72.93h.001z" fill="#000"/></g><defs><clipPath id="clip0_12_222"><path fill="#fff" d="M0 0h30v30H0z"/></clipPath></defs></svg>